<?xml version="1.0" encoding="UTF-8" standalone="no"?>
<svg
   xmlns:dc="http://purl.org/dc/elements/1.1/"
   xmlns:cc="http://creativecommons.org/ns#"
   xmlns:rdf="http://www.w3.org/1999/02/22-rdf-syntax-ns#"
   xmlns:svg="http://www.w3.org/2000/svg"
   xmlns="http://www.w3.org/2000/svg"
   width="100%"
   height="100%"
   viewBox="0 0 64 64"
   version="1.1"
   xml:space="preserve"
   style="fill-rule:evenodd;clip-rule:evenodd;stroke-linecap:round;stroke-linejoin:round;stroke-miterlimit:2;"
   id="svg17">
  <metadata
   id="metadata23">
    <rdf:RDF>
      <cc:Work
   rdf:about="">
        <dc:format>image/svg+xml</dc:format>

        <dc:type
   rdf:resource="http://purl.org/dc/dcmitype/StillImage" />

      </cc:Work>

    </rdf:RDF>

  </metadata>

  <defs
   id="defs21" />

  
  <path
   d="M22,10l2,0"
   style="fill:none;stroke:#222a33;stroke-width:2px;"
   id="path3" />

  <path
   d="M42,10l-2,0"
   style="fill:none;stroke:#222a33;stroke-width:2px;"
   id="path5" />

  <circle
   cx="32"
   cy="32"
   r="3"
   style="fill:none;stroke:#222a33;stroke-width:2px;"
   id="circle7" />

  <path
   d="M42,8.833l0,13.334c0,4.482 -2.949,8.276 -7.014,9.546"
   style="fill:none;stroke:#222a33;stroke-width:2px;"
   id="path9" />

  <path
   d="M29.014,31.713c-4.065,-1.27 -7.014,-5.064 -7.014,-9.546l0,-13.334"
   style="fill:none;stroke:#222a33;stroke-width:2px;"
   id="path11" />

  <path
   d="M32,35.75l0,11.75c0,1.989 0.79,3.897 2.197,5.303c1.406,1.407 3.314,2.197 5.303,2.197l0,0c4.142,0 7.5,-3.358 7.5,-7.5c0,-6.03 0,-13.5 0,-13.5"
   style="fill:none;stroke:#222a33;stroke-width:2px;"
   id="path13" />

  <path
   d="M26,13.369c0,-0.598 0.485,-1.083 1.083,-1.083c0.649,0 1.471,0 2.12,0c0.598,0 1.083,-0.485 1.083,-1.083l0,-2.12c0,-0.598 0.485,-1.083 1.083,-1.083c0.403,0 0.859,0 1.262,0c0.598,0 1.083,0.485 1.083,1.083c0,0.649 0,1.471 0,2.12c0,0.598 0.485,1.083 1.083,1.083l2.12,0c0.598,0 1.083,0.485 1.083,1.083c0,0.403 0,0.859 0,1.262c0,0.598 -0.485,1.083 -1.083,1.083c-0.649,0 -1.471,0 -2.12,0c-0.598,0 -1.083,0.485 -1.083,1.083l0,2.12c0,0.598 -0.485,1.083 -1.083,1.083c-0.403,0 -0.859,0 -1.262,0c-0.598,0 -1.083,-0.485 -1.083,-1.083c0,-0.649 0,-1.471 0,-2.12c0,-0.598 -0.485,-1.083 -1.083,-1.083l-2.12,0c-0.598,0 -1.083,-0.485 -1.083,-1.083c0,-0.403 0,-0.859 0,-1.262Z"
   style="fill:none;stroke:#222a33;stroke-width:2px;"
   id="path15" />

</svg>
